---------------------------
| M O V I E information |
---------------------------
Title : Stuart Little
Director : Rob Minkoff
Release year : 1999
Language : English & Hindi (Dual Audio)
Runtime : 81 min
Genre : Adventure | Comedy | Family | Fantasy
Color : Color
IMDb rating : 5.9/10   20,463 votes
Link 1 : http://www.imdb.com/title/tt0164912/
Format : Matroska
File size : 770 MiB
Source (DVD/DVDR 5,9) : NTSC DVD 9
Overall bit rate : 1 327 Kbps

-------------------
| Video Attribute |
-------------------
Format                           : MPEG-4 Visual
Format profile                   : AdvancedSimple@L5
Format settings, BVOP            : Yes
Format settings, QPel            : No
Format settings, GMC             : No warppoints
Format settings, Matrix          : Default (MPEG)
Codec ID                         : XVID
Codec ID/Hint                    : XviD
Duration                         : 1h 21mn
Bit rate                         : 1 045 Kbps
Width                            : 640 pixels
Height                           : 352 pixels
Display aspect ratio             : 16:9
Frame rate                       : 25.000 fps
Resolution                       : 24 bits
Colorimetry                      : 4:2:0
Scan type                        : Progressive
Bits/(Pixel*Frame)               : 0.185
Stream size                      : 606 MiB (79%)
Writing library                  : XviD 1.2.0.dev47 (UTC 2006-11-01)

-------------------
| Audio Attribute |
-------------------
Audio #1
Format                           : MPEG Audio
Format version                   : Version 1
Format profile                   : Layer 3
Codec ID                         : A_MPEG/L3
Codec ID/Hint                    : MP3
Duration                         : 1h 21mn
Bit rate mode                    : Constant
Bit rate                         : 128 Kbps
Channel(s)                       : 2 channels
Sampling rate                    : 48.0 KHz
Resolution                       : 16 bits
Stream size                      : 74.3 MiB (10%)
Title                            : English
Writing library                  : LAME3.97
Encoding settings                : -m j -V 4 -q 2 -lowpass 17 -b 128
Language                         : English

Audio #2
ID                               : 3
Format                           : MPEG Audio
Format version                   : Version 1
Format profile                   : Layer 3
Codec ID                         : A_MPEG/L3
Codec ID/Hint                    : MP3
Duration                         : 1h 21mn
Bit rate mode                    : Constant
Bit rate                         : 128 Kbps
Channel(s)                       : 2 channels
Sampling rate                    : 44.1 KHz
Resolution                       : 16 bits
Stream size                      : 74.3 MiB (10%)
Title                            : Hindi
Language                         : Hindi

--------------------
| Post Information |
--------------------
Posted by............................: $am3e

----------------
| Plot summary |
----------------
When the Little's go to an orphanage to adopt a new family member, their son, George, insists on a little brother as opposed to a big one. His request is honored more literally than he ever imagined when a charming young mouse named Stuart is chosen. While George is disappointed and initially unwelcoming to his new brother, the family cat, Snowbell, is even less enthusiastic at the prospect of having a mouse as his "master" and plots to get rid of him. Against these difficulties, Stuart resolves to face them with as much pluck, love and courage as he can muster. In doing so, he shows his beloved new family that great things can truly come in small packages.

---------------
| Ripper note |
---------------
Please Seed & Post Comment: $am3e